<svg xmlns="http://www.w3.org/2000/svg" version="1.1" xmlns:xlink="http://www.w3.org/1999/xlink" xmlns:svgjs="http://svgjs.dev/svgjs" width="500" height="1000" preserveAspectRatio="none" viewBox="0 0 500 1000"><g mask="url(&quot;#SvgjsMask1187&quot;)" fill="none"><rect width="500" height="1000" x="0" y="0" fill="rgba(29, 41, 52, 1)"></rect><path d="M16.22 101.59L52.59 122.59L52.59 164.59L16.22 185.59L-20.15 164.59L-20.15 122.59zM52.59 290.59L88.97 311.59L88.97 353.59L52.59 374.59L16.22 353.59L16.22 311.59zM16.22 605.59L52.59 626.59L52.59 668.59L16.22 689.59L-20.15 668.59L-20.15 626.59zM52.59 668.59L88.97 689.59L88.97 731.59L52.59 752.59L16.22 731.59L16.22 689.59zM52.59 920.59L88.97 941.59L88.97 983.59L52.59 1004.59L16.22 983.59L16.22 941.59zM88.97 479.59L125.34 500.59L125.34 542.59L88.97 563.59L52.59 542.59L52.59 500.59zM125.34 542.59L161.72 563.59L161.72 605.59L125.34 626.59L88.97 605.59L88.97 563.59zM88.97 605.59L125.34 626.59L125.34 668.59L88.97 689.59L52.59 668.59L52.59 626.59zM125.34 794.59L161.72 815.59L161.72 857.59L125.34 878.59L88.97 857.59L88.97 815.59zM125.34 920.59L161.72 941.59L161.72 983.59L125.34 1004.59L88.97 983.59L88.97 941.59zM88.97 983.59L125.34 1004.59L125.34 1046.59L88.97 1067.59L52.59 1046.59L52.59 1004.59zM161.72 -24.41L198.09 -3.41L198.09 38.59L161.72 59.59L125.34 38.59L125.34 -3.41zM198.09 38.59L234.46 59.59L234.46 101.59L198.09 122.59L161.72 101.59L161.72 59.59zM161.72 101.59L198.09 122.59L198.09 164.59L161.72 185.59L125.34 164.59L125.34 122.59zM198.09 290.59L234.46 311.59L234.46 353.59L198.09 374.59L161.72 353.59L161.72 311.59zM161.72 479.59L198.09 500.59L198.09 542.59L161.72 563.59L125.34 542.59L125.34 500.59zM198.09 542.59L234.46 563.59L234.46 605.59L198.09 626.59L161.72 605.59L161.72 563.59zM198.09 668.59L234.46 689.59L234.46 731.59L198.09 752.59L161.72 731.59L161.72 689.59zM161.72 731.59L198.09 752.59L198.09 794.59L161.72 815.59L125.34 794.59L125.34 752.59zM198.09 920.59L234.46 941.59L234.46 983.59L198.09 1004.59L161.72 983.59L161.72 941.59zM161.72 983.59L198.09 1004.59L198.09 1046.59L161.72 1067.59L125.34 1046.59L125.34 1004.59zM234.46 -24.41L270.84 -3.41L270.84 38.59L234.46 59.59L198.09 38.59L198.09 -3.41zM270.84 164.59L307.21 185.59L307.21 227.59L270.84 248.59L234.46 227.59L234.46 185.59zM234.46 227.59L270.84 248.59L270.84 290.59L234.46 311.59L198.09 290.59L198.09 248.59zM234.46 353.59L270.84 374.59L270.84 416.59L234.46 437.59L198.09 416.59L198.09 374.59zM270.84 416.59L307.21 437.59L307.21 479.59L270.84 500.59L234.46 479.59L234.46 437.59zM270.84 542.59L307.21 563.59L307.21 605.59L270.84 626.59L234.46 605.59L234.46 563.59zM234.46 605.59L270.84 626.59L270.84 668.59L234.46 689.59L198.09 668.59L198.09 626.59zM270.84 794.59L307.21 815.59L307.21 857.59L270.84 878.59L234.46 857.59L234.46 815.59zM343.59 164.59L379.96 185.59L379.96 227.59L343.59 248.59L307.21 227.59L307.21 185.59zM307.21 227.59L343.59 248.59L343.59 290.59L307.21 311.59L270.84 290.59L270.84 248.59zM343.59 416.59L379.96 437.59L379.96 479.59L343.59 500.59L307.21 479.59L307.21 437.59zM343.59 542.59L379.96 563.59L379.96 605.59L343.59 626.59L307.21 605.59L307.21 563.59zM307.21 605.59L343.59 626.59L343.59 668.59L307.21 689.59L270.84 668.59L270.84 626.59zM343.59 668.59L379.96 689.59L379.96 731.59L343.59 752.59L307.21 731.59L307.21 689.59zM307.21 731.59L343.59 752.59L343.59 794.59L307.21 815.59L270.84 794.59L270.84 752.59zM343.59 920.59L379.96 941.59L379.96 983.59L343.59 1004.59L307.21 983.59L307.21 941.59zM379.96 -24.41L416.34 -3.41L416.34 38.59L379.96 59.59L343.59 38.59L343.59 -3.41zM416.34 416.59L452.71 437.59L452.71 479.59L416.34 500.59L379.96 479.59L379.96 437.59zM416.34 542.59L452.71 563.59L452.71 605.59L416.34 626.59L379.96 605.59L379.96 563.59zM379.96 605.59L416.34 626.59L416.34 668.59L379.96 689.59L343.59 668.59L343.59 626.59zM416.34 668.59L452.71 689.59L452.71 731.59L416.34 752.59L379.96 731.59L379.96 689.59zM416.34 920.59L452.71 941.59L452.71 983.59L416.34 1004.59L379.96 983.59L379.96 941.59zM489.08 164.59L525.46 185.59L525.46 227.59L489.08 248.59L452.71 227.59L452.71 185.59zM452.71 227.59L489.08 248.59L489.08 290.59L452.71 311.59L416.34 290.59L416.34 248.59zM452.71 353.59L489.08 374.59L489.08 416.59L452.71 437.59L416.34 416.59L416.34 374.59zM489.08 668.59L525.46 689.59L525.46 731.59L489.08 752.59L452.71 731.59L452.71 689.59zM489.08 794.59L525.46 815.59L525.46 857.59L489.08 878.59L452.71 857.59L452.71 815.59z" stroke="rgba(0, 0, 0, 0.09)" stroke-width="2"></path><path d="M12.02 101.59 a4.2 4.2 0 1 0 8.4 0 a4.2 4.2 0 1 0 -8.4 0zM48.39 122.59 a4.2 4.2 0 1 0 8.4 0 a4.2 4.2 0 1 0 -8.4 0zM48.39 164.59 a4.2 4.2 0 1 0 8.4 0 a4.2 4.2 0 1 0 -8.4 0zM12.02 185.59 a4.2 4.2 0 1 0 8.4 0 a4.2 4.2 0 1 0 -8.4 0zM-24.35 164.59 a4.2 4.2 0 1 0 8.4 0 a4.2 4.2 0 1 0 -8.4 0zM-24.35 122.59 a4.2 4.2 0 1 0 8.4 0 a4.2 4.2 0 1 0 -8.4 0zM48.39 290.59 a4.2 4.2 0 1 0 8.4 0 a4.2 4.2 0 1 0 -8.4 0zM84.77 311.59 a4.2 4.2 0 1 0 8.4 0 a4.2 4.2 0 1 0 -8.4 0zM84.77 353.59 a4.2 4.2 0 1 0 8.4 0 a4.2 4.2 0 1 0 -8.4 0zM48.39 374.59 a4.2 4.2 0 1 0 8.4 0 a4.2 4.2 0 1 0 -8.4 0zM12.02 353.59 a4.2 4.2 0 1 0 8.4 0 a4.2 4.2 0 1 0 -8.4 0zM12.02 311.59 a4.2 4.2 0 1 0 8.4 0 a4.2 4.2 0 1 0 -8.4 0zM12.02 605.59 a4.2 4.2 0 1 0 8.4 0 a4.2 4.2 0 1 0 -8.4 0zM48.39 626.59 a4.2 4.2 0 1 0 8.4 0 a4.2 4.2 0 1 0 -8.4 0zM48.39 668.59 a4.2 4.2 0 1 0 8.4 0 a4.2 4.2 0 1 0 -8.4 0zM12.02 689.59 a4.2 4.2 0 1 0 8.4 0 a4.2 4.2 0 1 0 -8.4 0zM-24.35 668.59 a4.2 4.2 0 1 0 8.4 0 a4.2 4.2 0 1 0 -8.4 0zM-24.35 626.59 a4.2 4.2 0 1 0 8.4 0 a4.2 4.2 0 1 0 -8.4 0zM84.77 689.59 a4.2 4.2 0 1 0 8.4 0 a4.2 4.2 0 1 0 -8.4 0zM84.77 731.59 a4.2 4.2 0 1 0 8.4 0 a4.2 4.2 0 1 0 -8.4 0zM48.39 752.59 a4.2 4.2 0 1 0 8.4 0 a4.2 4.2 0 1 0 -8.4 0zM12.02 731.59 a4.2 4.2 0 1 0 8.4 0 a4.2 4.2 0 1 0 -8.4 0zM48.39 920.59 a4.2 4.2 0 1 0 8.4 0 a4.2 4.2 0 1 0 -8.4 0zM84.77 941.59 a4.2 4.2 0 1 0 8.4 0 a4.2 4.2 0 1 0 -8.4 0zM84.77 983.59 a4.2 4.2 0 1 0 8.4 0 a4.2 4.2 0 1 0 -8.4 0zM48.39 1004.59 a4.2 4.2 0 1 0 8.4 0 a4.2 4.2 0 1 0 -8.4 0zM12.02 983.59 a4.2 4.2 0 1 0 8.4 0 a4.2 4.2 0 1 0 -8.4 0zM12.02 941.59 a4.2 4.2 0 1 0 8.4 0 a4.2 4.2 0 1 0 -8.4 0zM84.77 479.59 a4.2 4.2 0 1 0 8.4 0 a4.2 4.2 0 1 0 -8.4 0zM121.14 500.59 a4.2 4.2 0 1 0 8.4 0 a4.2 4.2 0 1 0 -8.4 0zM121.14 542.59 a4.2 4.2 0 1 0 8.4 0 a4.2 4.2 0 1 0 -8.4 0zM84.77 563.59 a4.2 4.2 0 1 0 8.4 0 a4.2 4.2 0 1 0 -8.4 0zM48.39 542.59 a4.2 4.2 0 1 0 8.4 0 a4.2 4.2 0 1 0 -8.4 0zM48.39 500.59 a4.2 4.2 0 1 0 8.4 0 a4.2 4.2 0 1 0 -8.4 0zM157.52 563.59 a4.2 4.2 0 1 0 8.4 0 a4.2 4.2 0 1 0 -8.4 0zM157.52 605.59 a4.2 4.2 0 1 0 8.4 0 a4.2 4.2 0 1 0 -8.4 0zM121.14 626.59 a4.2 4.2 0 1 0 8.4 0 a4.2 4.2 0 1 0 -8.4 0zM84.77 605.59 a4.2 4.2 0 1 0 8.4 0 a4.2 4.2 0 1 0 -8.4 0zM121.14 668.59 a4.2 4.2 0 1 0 8.4 0 a4.2 4.2 0 1 0 -8.4 0zM121.14 794.59 a4.2 4.2 0 1 0 8.4 0 a4.2 4.2 0 1 0 -8.4 0zM157.52 815.59 a4.2 4.2 0 1 0 8.4 0 a4.2 4.2 0 1 0 -8.4 0zM157.52 857.59 a4.2 4.2 0 1 0 8.4 0 a4.2 4.2 0 1 0 -8.4 0zM121.14 878.59 a4.2 4.2 0 1 0 8.4 0 a4.2 4.2 0 1 0 -8.4 0zM84.77 857.59 a4.2 4.2 0 1 0 8.4 0 a4.2 4.2 0 1 0 -8.4 0zM84.77 815.59 a4.2 4.2 0 1 0 8.4 0 a4.2 4.2 0 1 0 -8.4 0zM121.14 920.59 a4.2 4.2 0 1 0 8.4 0 a4.2 4.2 0 1 0 -8.4 0zM157.52 941.59 a4.2 4.2 0 1 0 8.4 0 a4.2 4.2 0 1 0 -8.4 0zM157.52 983.59 a4.2 4.2 0 1 0 8.4 0 a4.2 4.2 0 1 0 -8.4 0zM121.14 1004.59 a4.2 4.2 0 1 0 8.4 0 a4.2 4.2 0 1 0 -8.4 0zM121.14 1046.59 a4.2 4.2 0 1 0 8.4 0 a4.2 4.2 0 1 0 -8.4 0zM84.77 1067.59 a4.2 4.2 0 1 0 8.4 0 a4.2 4.2 0 1 0 -8.4 0zM48.39 1046.59 a4.2 4.2 0 1 0 8.4 0 a4.2 4.2 0 1 0 -8.4 0zM157.52 -24.41 a4.2 4.2 0 1 0 8.4 0 a4.2 4.2 0 1 0 -8.4 0zM193.89 -3.41 a4.2 4.2 0 1 0 8.4 0 a4.2 4.2 0 1 0 -8.4 0zM193.89 38.59 a4.2 4.2 0 1 0 8.4 0 a4.2 4.2 0 1 0 -8.4 0zM157.52 59.59 a4.2 4.2 0 1 0 8.4 0 a4.2 4.2 0 1 0 -8.4 0zM121.14 38.59 a4.2 4.2 0 1 0 8.4 0 a4.2 4.2 0 1 0 -8.4 0zM121.14 -3.41 a4.2 4.2 0 1 0 8.4 0 a4.2 4.2 0 1 0 -8.4 0zM230.26 59.59 a4.2 4.2 0 1 0 8.4 0 a4.2 4.2 0 1 0 -8.4 0zM230.26 101.59 a4.2 4.2 0 1 0 8.4 0 a4.2 4.2 0 1 0 -8.4 0zM193.89 122.59 a4.2 4.2 0 1 0 8.4 0 a4.2 4.2 0 1 0 -8.4 0zM157.52 101.59 a4.2 4.2 0 1 0 8.4 0 a4.2 4.2 0 1 0 -8.4 0zM193.89 164.59 a4.2 4.2 0 1 0 8.4 0 a4.2 4.2 0 1 0 -8.4 0zM157.52 185.59 a4.2 4.2 0 1 0 8.4 0 a4.2 4.2 0 1 0 -8.4 0zM121.14 164.59 a4.2 4.2 0 1 0 8.4 0 a4.2 4.2 0 1 0 -8.4 0zM121.14 122.59 a4.2 4.2 0 1 0 8.4 0 a4.2 4.2 0 1 0 -8.4 0zM193.89 290.59 a4.2 4.2 0 1 0 8.4 0 a4.2 4.2 0 1 0 -8.4 0zM230.26 311.59 a4.2 4.2 0 1 0 8.4 0 a4.2 4.2 0 1 0 -8.4 0zM230.26 353.59 a4.2 4.2 0 1 0 8.4 0 a4.2 4.2 0 1 0 -8.4 0zM193.89 374.59 a4.2 4.2 0 1 0 8.4 0 a4.2 4.2 0 1 0 -8.4 0zM157.52 353.59 a4.2 4.2 0 1 0 8.4 0 a4.2 4.2 0 1 0 -8.4 0zM157.52 311.59 a4.2 4.2 0 1 0 8.4 0 a4.2 4.2 0 1 0 -8.4 0zM157.52 479.59 a4.2 4.2 0 1 0 8.4 0 a4.2 4.2 0 1 0 -8.4 0zM193.89 500.59 a4.2 4.2 0 1 0 8.4 0 a4.2 4.2 0 1 0 -8.4 0zM193.89 542.59 a4.2 4.2 0 1 0 8.4 0 a4.2 4.2 0 1 0 -8.4 0zM230.26 563.59 a4.2 4.2 0 1 0 8.4 0 a4.2 4.2 0 1 0 -8.4 0zM230.26 605.59 a4.2 4.2 0 1 0 8.4 0 a4.2 4.2 0 1 0 -8.4 0zM193.89 626.59 a4.2 4.2 0 1 0 8.4 0 a4.2 4.2 0 1 0 -8.4 0zM193.89 668.59 a4.2 4.2 0 1 0 8.4 0 a4.2 4.2 0 1 0 -8.4 0zM230.26 689.59 a4.2 4.2 0 1 0 8.4 0 a4.2 4.2 0 1 0 -8.4 0zM230.26 731.59 a4.2 4.2 0 1 0 8.4 0 a4.2 4.2 0 1 0 -8.4 0zM193.89 752.59 a4.2 4.2 0 1 0 8.4 0 a4.2 4.2 0 1 0 -8.4 0zM157.52 731.59 a4.2 4.2 0 1 0 8.4 0 a4.2 4.2 0 1 0 -8.4 0zM157.52 689.59 a4.2 4.2 0 1 0 8.4 0 a4.2 4.2 0 1 0 -8.4 0zM193.89 794.59 a4.2 4.2 0 1 0 8.4 0 a4.2 4.2 0 1 0 -8.4 0zM121.14 752.59 a4.2 4.2 0 1 0 8.4 0 a4.2 4.2 0 1 0 -8.4 0zM193.89 920.59 a4.2 4.2 0 1 0 8.4 0 a4.2 4.2 0 1 0 -8.4 0zM230.26 941.59 a4.2 4.2 0 1 0 8.4 0 a4.2 4.2 0 1 0 -8.4 0zM230.26 983.59 a4.2 4.2 0 1 0 8.4 0 a4.2 4.2 0 1 0 -8.4 0zM193.89 1004.59 a4.2 4.2 0 1 0 8.4 0 a4.2 4.2 0 1 0 -8.4 0zM193.89 1046.59 a4.2 4.2 0 1 0 8.4 0 a4.2 4.2 0 1 0 -8.4 0zM157.52 1067.59 a4.2 4.2 0 1 0 8.4 0 a4.2 4.2 0 1 0 -8.4 0zM230.26 -24.41 a4.2 4.2 0 1 0 8.4 0 a4.2 4.2 0 1 0 -8.4 0zM266.64 -3.41 a4.2 4.2 0 1 0 8.4 0 a4.2 4.2 0 1 0 -8.4 0zM266.64 38.59 a4.2 4.2 0 1 0 8.4 0 a4.2 4.2 0 1 0 -8.4 0zM266.64 164.59 a4.2 4.2 0 1 0 8.4 0 a4.2 4.2 0 1 0 -8.4 0zM303.01 185.59 a4.2 4.2 0 1 0 8.4 0 a4.2 4.2 0 1 0 -8.4 0zM303.01 227.59 a4.2 4.2 0 1 0 8.4 0 a4.2 4.2 0 1 0 -8.4 0zM266.64 248.59 a4.2 4.2 0 1 0 8.4 0 a4.2 4.2 0 1 0 -8.4 0zM230.26 227.59 a4.2 4.2 0 1 0 8.4 0 a4.2 4.2 0 1 0 -8.4 0zM230.26 185.59 a4.2 4.2 0 1 0 8.4 0 a4.2 4.2 0 1 0 -8.4 0zM266.64 290.59 a4.2 4.2 0 1 0 8.4 0 a4.2 4.2 0 1 0 -8.4 0zM193.89 248.59 a4.2 4.2 0 1 0 8.4 0 a4.2 4.2 0 1 0 -8.4 0zM266.64 374.59 a4.2 4.2 0 1 0 8.4 0 a4.2 4.2 0 1 0 -8.4 0zM266.64 416.59 a4.2 4.2 0 1 0 8.4 0 a4.2 4.2 0 1 0 -8.4 0zM230.26 437.59 a4.2 4.2 0 1 0 8.4 0 a4.2 4.2 0 1 0 -8.4 0zM193.89 416.59 a4.2 4.2 0 1 0 8.4 0 a4.2 4.2 0 1 0 -8.4 0zM303.01 437.59 a4.2 4.2 0 1 0 8.4 0 a4.2 4.2 0 1 0 -8.4 0zM303.01 479.59 a4.2 4.2 0 1 0 8.4 0 a4.2 4.2 0 1 0 -8.4 0zM266.64 500.59 a4.2 4.2 0 1 0 8.4 0 a4.2 4.2 0 1 0 -8.4 0zM230.26 479.59 a4.2 4.2 0 1 0 8.4 0 a4.2 4.2 0 1 0 -8.4 0zM266.64 542.59 a4.2 4.2 0 1 0 8.4 0 a4.2 4.2 0 1 0 -8.4 0zM303.01 563.59 a4.2 4.2 0 1 0 8.4 0 a4.2 4.2 0 1 0 -8.4 0zM303.01 605.59 a4.2 4.2 0 1 0 8.4 0 a4.2 4.2 0 1 0 -8.4 0zM266.64 626.59 a4.2 4.2 0 1 0 8.4 0 a4.2 4.2 0 1 0 -8.4 0zM266.64 668.59 a4.2 4.2 0 1 0 8.4 0 a4.2 4.2 0 1 0 -8.4 0zM266.64 794.59 a4.2 4.2 0 1 0 8.4 0 a4.2 4.2 0 1 0 -8.4 0zM303.01 815.59 a4.2 4.2 0 1 0 8.4 0 a4.2 4.2 0 1 0 -8.4 0zM303.01 857.59 a4.2 4.2 0 1 0 8.4 0 a4.2 4.2 0 1 0 -8.4 0zM266.64 878.59 a4.2 4.2 0 1 0 8.4 0 a4.2 4.2 0 1 0 -8.4 0zM230.26 857.59 a4.2 4.2 0 1 0 8.4 0 a4.2 4.2 0 1 0 -8.4 0zM230.26 815.59 a4.2 4.2 0 1 0 8.4 0 a4.2 4.2 0 1 0 -8.4 0zM339.39 164.59 a4.2 4.2 0 1 0 8.4 0 a4.2 4.2 0 1 0 -8.4 0zM375.76 185.59 a4.2 4.2 0 1 0 8.4 0 a4.2 4.2 0 1 0 -8.4 0zM375.76 227.59 a4.2 4.2 0 1 0 8.4 0 a4.2 4.2 0 1 0 -8.4 0zM339.39 248.59 a4.2 4.2 0 1 0 8.4 0 a4.2 4.2 0 1 0 -8.4 0zM339.39 290.59 a4.2 4.2 0 1 0 8.4 0 a4.2 4.2 0 1 0 -8.4 0zM303.01 311.59 a4.2 4.2 0 1 0 8.4 0 a4.2 4.2 0 1 0 -8.4 0zM339.39 416.59 a4.2 4.2 0 1 0 8.4 0 a4.2 4.2 0 1 0 -8.4 0zM375.76 437.59 a4.2 4.2 0 1 0 8.4 0 a4.2 4.2 0 1 0 -8.4 0zM375.76 479.59 a4.2 4.2 0 1 0 8.4 0 a4.2 4.2 0 1 0 -8.4 0zM339.39 500.59 a4.2 4.2 0 1 0 8.4 0 a4.2 4.2 0 1 0 -8.4 0zM339.39 542.59 a4.2 4.2 0 1 0 8.4 0 a4.2 4.2 0 1 0 -8.4 0zM375.76 563.59 a4.2 4.2 0 1 0 8.4 0 a4.2 4.2 0 1 0 -8.4 0zM375.76 605.59 a4.2 4.2 0 1 0 8.4 0 a4.2 4.2 0 1 0 -8.4 0zM339.39 626.59 a4.2 4.2 0 1 0 8.4 0 a4.2 4.2 0 1 0 -8.4 0zM339.39 668.59 a4.2 4.2 0 1 0 8.4 0 a4.2 4.2 0 1 0 -8.4 0zM303.01 689.59 a4.2 4.2 0 1 0 8.4 0 a4.2 4.2 0 1 0 -8.4 0zM375.76 689.59 a4.2 4.2 0 1 0 8.4 0 a4.2 4.2 0 1 0 -8.4 0zM375.76 731.59 a4.2 4.2 0 1 0 8.4 0 a4.2 4.2 0 1 0 -8.4 0zM339.39 752.59 a4.2 4.2 0 1 0 8.4 0 a4.2 4.2 0 1 0 -8.4 0zM303.01 731.59 a4.2 4.2 0 1 0 8.4 0 a4.2 4.2 0 1 0 -8.4 0zM339.39 794.59 a4.2 4.2 0 1 0 8.4 0 a4.2 4.2 0 1 0 -8.4 0zM266.64 752.59 a4.2 4.2 0 1 0 8.4 0 a4.2 4.2 0 1 0 -8.4 0zM339.39 920.59 a4.2 4.2 0 1 0 8.4 0 a4.2 4.2 0 1 0 -8.4 0zM375.76 941.59 a4.2 4.2 0 1 0 8.4 0 a4.2 4.2 0 1 0 -8.4 0zM375.76 983.59 a4.2 4.2 0 1 0 8.4 0 a4.2 4.2 0 1 0 -8.4 0zM339.39 1004.59 a4.2 4.2 0 1 0 8.4 0 a4.2 4.2 0 1 0 -8.4 0zM303.01 983.59 a4.2 4.2 0 1 0 8.4 0 a4.2 4.2 0 1 0 -8.4 0zM303.01 941.59 a4.2 4.2 0 1 0 8.4 0 a4.2 4.2 0 1 0 -8.4 0zM375.76 -24.41 a4.2 4.2 0 1 0 8.4 0 a4.2 4.2 0 1 0 -8.4 0zM412.14 -3.41 a4.2 4.2 0 1 0 8.4 0 a4.2 4.2 0 1 0 -8.4 0zM412.14 38.59 a4.2 4.2 0 1 0 8.4 0 a4.2 4.2 0 1 0 -8.4 0zM375.76 59.59 a4.2 4.2 0 1 0 8.4 0 a4.2 4.2 0 1 0 -8.4 0zM339.39 38.59 a4.2 4.2 0 1 0 8.4 0 a4.2 4.2 0 1 0 -8.4 0zM339.39 -3.41 a4.2 4.2 0 1 0 8.4 0 a4.2 4.2 0 1 0 -8.4 0zM412.14 416.59 a4.2 4.2 0 1 0 8.4 0 a4.2 4.2 0 1 0 -8.4 0zM448.51 437.59 a4.2 4.2 0 1 0 8.4 0 a4.2 4.2 0 1 0 -8.4 0zM448.51 479.59 a4.2 4.2 0 1 0 8.4 0 a4.2 4.2 0 1 0 -8.4 0zM412.14 500.59 a4.2 4.2 0 1 0 8.4 0 a4.2 4.2 0 1 0 -8.4 0zM412.14 542.59 a4.2 4.2 0 1 0 8.4 0 a4.2 4.2 0 1 0 -8.4 0zM448.51 563.59 a4.2 4.2 0 1 0 8.4 0 a4.2 4.2 0 1 0 -8.4 0zM448.51 605.59 a4.2 4.2 0 1 0 8.4 0 a4.2 4.2 0 1 0 -8.4 0zM412.14 626.59 a4.2 4.2 0 1 0 8.4 0 a4.2 4.2 0 1 0 -8.4 0zM412.14 668.59 a4.2 4.2 0 1 0 8.4 0 a4.2 4.2 0 1 0 -8.4 0zM448.51 689.59 a4.2 4.2 0 1 0 8.4 0 a4.2 4.2 0 1 0 -8.4 0zM448.51 731.59 a4.2 4.2 0 1 0 8.4 0 a4.2 4.2 0 1 0 -8.4 0zM412.14 752.59 a4.2 4.2 0 1 0 8.4 0 a4.2 4.2 0 1 0 -8.4 0zM412.14 920.59 a4.2 4.2 0 1 0 8.4 0 a4.2 4.2 0 1 0 -8.4 0zM448.51 941.59 a4.2 4.2 0 1 0 8.4 0 a4.2 4.2 0 1 0 -8.4 0zM448.51 983.59 a4.2 4.2 0 1 0 8.4 0 a4.2 4.2 0 1 0 -8.4 0zM412.14 1004.59 a4.2 4.2 0 1 0 8.4 0 a4.2 4.2 0 1 0 -8.4 0zM484.88 164.59 a4.2 4.2 0 1 0 8.4 0 a4.2 4.2 0 1 0 -8.4 0zM521.26 185.59 a4.2 4.2 0 1 0 8.4 0 a4.2 4.2 0 1 0 -8.4 0zM521.26 227.59 a4.2 4.2 0 1 0 8.4 0 a4.2 4.2 0 1 0 -8.4 0zM484.88 248.59 a4.2 4.2 0 1 0 8.4 0 a4.2 4.2 0 1 0 -8.4 0zM448.51 227.59 a4.2 4.2 0 1 0 8.4 0 a4.2 4.2 0 1 0 -8.4 0zM448.51 185.59 a4.2 4.2 0 1 0 8.4 0 a4.2 4.2 0 1 0 -8.4 0zM484.88 290.59 a4.2 4.2 0 1 0 8.4 0 a4.2 4.2 0 1 0 -8.4 0zM448.51 311.59 a4.2 4.2 0 1 0 8.4 0 a4.2 4.2 0 1 0 -8.4 0zM412.14 290.59 a4.2 4.2 0 1 0 8.4 0 a4.2 4.2 0 1 0 -8.4 0zM412.14 248.59 a4.2 4.2 0 1 0 8.4 0 a4.2 4.2 0 1 0 -8.4 0zM448.51 353.59 a4.2 4.2 0 1 0 8.4 0 a4.2 4.2 0 1 0 -8.4 0zM484.88 374.59 a4.2 4.2 0 1 0 8.4 0 a4.2 4.2 0 1 0 -8.4 0zM484.88 416.59 a4.2 4.2 0 1 0 8.4 0 a4.2 4.2 0 1 0 -8.4 0zM412.14 374.59 a4.2 4.2 0 1 0 8.4 0 a4.2 4.2 0 1 0 -8.4 0zM484.88 668.59 a4.2 4.2 0 1 0 8.4 0 a4.2 4.2 0 1 0 -8.4 0zM521.26 689.59 a4.2 4.2 0 1 0 8.4 0 a4.2 4.2 0 1 0 -8.4 0zM521.26 731.59 a4.2 4.2 0 1 0 8.4 0 a4.2 4.2 0 1 0 -8.4 0zM484.88 752.59 a4.2 4.2 0 1 0 8.4 0 a4.2 4.2 0 1 0 -8.4 0zM484.88 794.59 a4.2 4.2 0 1 0 8.4 0 a4.2 4.2 0 1 0 -8.4 0zM521.26 815.59 a4.2 4.2 0 1 0 8.4 0 a4.2 4.2 0 1 0 -8.4 0zM521.26 857.59 a4.2 4.2 0 1 0 8.4 0 a4.2 4.2 0 1 0 -8.4 0zM484.88 878.59 a4.2 4.2 0 1 0 8.4 0 a4.2 4.2 0 1 0 -8.4 0zM448.51 857.59 a4.2 4.2 0 1 0 8.4 0 a4.2 4.2 0 1 0 -8.4 0zM448.51 815.59 a4.2 4.2 0 1 0 8.4 0 a4.2 4.2 0 1 0 -8.4 0z" fill="rgba(0, 0, 0, 0.09)"></path><path d="M22.81 187.67L53.12 205.17L53.12 240.17L22.81 257.67L-7.5 240.17L-7.5 205.17zM22.81 607.67L53.12 625.17L53.12 660.17L22.81 677.67L-7.5 660.17L-7.5 625.17zM53.12 765.17L83.43 782.67L83.43 817.67L53.12 835.17L22.81 817.67L22.81 782.67zM53.12 870.17L83.43 887.67L83.43 922.67L53.12 940.17L22.81 922.67L22.81 887.67zM113.75 30.17L144.06 47.67L144.06 82.67L113.75 100.17L83.43 82.67L83.43 47.67zM113.75 345.17L144.06 362.67L144.06 397.67L113.75 415.17L83.43 397.67L83.43 362.67zM113.75 660.17L144.06 677.67L144.06 712.67L113.75 730.17L83.43 712.67L83.43 677.67zM83.43 817.67L113.75 835.17L113.75 870.17L83.43 887.67L53.12 870.17L53.12 835.17zM83.43 922.67L113.75 940.17L113.75 975.17L83.43 992.67L53.12 975.17L53.12 940.17zM144.06 -22.33L174.37 -4.83L174.37 30.17L144.06 47.67L113.75 30.17L113.75 -4.83zM144.06 82.67L174.37 100.17L174.37 135.17L144.06 152.67L113.75 135.17L113.75 100.17zM144.06 187.67L174.37 205.17L174.37 240.17L144.06 257.67L113.75 240.17L113.75 205.17zM174.37 660.17L204.68 677.67L204.68 712.67L174.37 730.17L144.06 712.67L144.06 677.67zM204.68 -22.33L234.99 -4.83L234.99 30.17L204.68 47.67L174.37 30.17L174.37 -4.83zM234.99 30.17L265.3 47.67L265.3 82.67L234.99 100.17L204.68 82.67L204.68 47.67zM204.68 187.67L234.99 205.17L234.99 240.17L204.68 257.67L174.37 240.17L174.37 205.17zM234.99 450.17L265.3 467.67L265.3 502.67L234.99 520.17L204.68 502.67L204.68 467.67zM234.99 765.17L265.3 782.67L265.3 817.67L234.99 835.17L204.68 817.67L204.68 782.67zM204.68 817.67L234.99 835.17L234.99 870.17L204.68 887.67L174.37 870.17L174.37 835.17zM265.3 607.67L295.62 625.17L295.62 660.17L265.3 677.67L234.99 660.17L234.99 625.17zM295.62 765.17L325.93 782.67L325.93 817.67L295.62 835.17L265.3 817.67L265.3 782.67zM265.3 817.67L295.62 835.17L295.62 870.17L265.3 887.67L234.99 870.17L234.99 835.17zM265.3 922.67L295.62 940.17L295.62 975.17L265.3 992.67L234.99 975.17L234.99 940.17zM295.62 975.17L325.93 992.67L325.93 1027.67L295.62 1045.17L265.3 1027.67L265.3 992.67zM356.24 240.17L386.55 257.67L386.55 292.67L356.24 310.17L325.93 292.67L325.93 257.67zM356.24 345.17L386.55 362.67L386.55 397.67L356.24 415.17L325.93 397.67L325.93 362.67zM356.24 555.17L386.55 572.67L386.55 607.67L356.24 625.17L325.93 607.67L325.93 572.67zM356.24 660.17L386.55 677.67L386.55 712.67L356.24 730.17L325.93 712.67L325.93 677.67zM325.93 712.67L356.24 730.17L356.24 765.17L325.93 782.67L295.62 765.17L295.62 730.17zM325.93 817.67L356.24 835.17L356.24 870.17L325.93 887.67L295.62 870.17L295.62 835.17zM325.93 922.67L356.24 940.17L356.24 975.17L325.93 992.67L295.62 975.17L295.62 940.17zM386.55 712.67L416.86 730.17L416.86 765.17L386.55 782.67L356.24 765.17L356.24 730.17zM477.49 345.17L507.8 362.67L507.8 397.67L477.49 415.17L447.17 397.67L447.17 362.67zM447.17 397.67L477.49 415.17L477.49 450.17L447.17 467.67L416.86 450.17L416.86 415.17zM477.49 450.17L507.8 467.67L507.8 502.67L477.49 520.17L447.17 502.67L447.17 467.67zM447.17 607.67L477.49 625.17L477.49 660.17L447.17 677.67L416.86 660.17L416.86 625.17zM477.49 765.17L507.8 782.67L507.8 817.67L477.49 835.17L447.17 817.67L447.17 782.67zM477.49 870.17L507.8 887.67L507.8 922.67L477.49 940.17L447.17 922.67L447.17 887.67zM538.11 240.17L568.42 257.67L568.42 292.67L538.11 310.17L507.8 292.67L507.8 257.67zM538.11 345.17L568.42 362.67L568.42 397.67L538.11 415.17L507.8 397.67L507.8 362.67zM538.11 450.17L568.42 467.67L568.42 502.67L538.11 520.17L507.8 502.67L507.8 467.67zM507.8 502.67L538.11 520.17L538.11 555.17L507.8 572.67L477.49 555.17L477.49 520.17z" stroke="rgba(0, 0, 0, 0.13)" stroke-width="2"></path></g><defs><mask id="SvgjsMask1187"><rect width="500" height="1000" fill="#ffffff"></rect></mask></defs></svg>